<svg xmlns="http://www.w3.org/2000/svg" viewBox="0 0 512 512">
  <rect width="512" height="512" rx="96" fill="#0f3d2e"/>
  <path d="M64 300c48 0 48-28 96-28s48 28 96 28 48-28 96-28 48 28 96 28v40c-48 0-48-28-96-28s-48 28-96 28-48-28-96-28-48 28-96 28z" fill="#5fb98a"/>
  <path d="M64 356c48 0 48-28 96-28s48 28 96 28 48-28 96-28 48 28 96 28v48c-48 0-48-28-96-28s-48 28-96 28-48-28-96-28-48 28-96 28z" fill="#3a8a60"/>
  <rect x="244" y="120" width="24" height="120" rx="12" fill="#f4f1ea"/>
  <circle cx="256" cy="250" r="26" fill="#f4f1ea"/>
  <path d="M256 96l28 40h-56z" fill="#d9b21f"/>
</svg>
